<svg id="176741028" viewBox="-4 0 373.65517241379314 65.73296797186995" height="65.73296797186995" width="373.65517241379314" style="width: 373.655px; height: 65.733px; position: absolute; top: 50%; left: 50%; transform: translate(-50%, -50%) scale(0.956764); z-index: 0; cursor: pointer; overflow: visible;"><defs id="SvgjsDefs4583"></defs><g id="SvgjsG4584" featurekey="HKaMnE-0" transform="matrix(0.6237900310833048,0,0,0.6237900310833048,-5.016777747691324,8.305614718089947)" fill="#2596e6"><polygon xmlns="http://www.w3.org/2000/svg" points="42.021,89.823 98.369,53.589 82.566,61.219 82.574,61.292 82.527,61.238 82.264,61.365 82.281,61.389 "></polygon><polygon xmlns="http://www.w3.org/2000/svg" points="79.395,61.174 38.895,57.391 36.811,91.25 "></polygon><polygon xmlns="http://www.w3.org/2000/svg" points="3.71,38.712 34.918,92.062 37.066,57.146 "></polygon><polygon xmlns="http://www.w3.org/2000/svg" points="95.209,45.172 80.775,27.29 79.232,32.516 95.928,46.175 "></polygon><polygon xmlns="http://www.w3.org/2000/svg" points="98.135,50.979 79.758,35.645 82.281,58.632 "></polygon><polygon xmlns="http://www.w3.org/2000/svg" points="61.512,33.498 79.758,54.504 77.424,33.356 "></polygon><polygon xmlns="http://www.w3.org/2000/svg" points="59.756,34.836 39.467,54.979 80.432,58.808 "></polygon><polygon xmlns="http://www.w3.org/2000/svg" points="58.445,33.191 36.674,27.365 38.974,52.971 "></polygon><polygon xmlns="http://www.w3.org/2000/svg" points="37.133,54.393 34.822,28.537 6.776,37.639 "></polygon><polygon xmlns="http://www.w3.org/2000/svg" points="8.923,35.031 34.527,26.292 25.659,19.867 "></polygon><polygon xmlns="http://www.w3.org/2000/svg" points="1.63,26.184 3.25,37.485 20.957,21.022 "></polygon><polygon xmlns="http://www.w3.org/2000/svg" points="28.355,14.604 7.837,21.987 26.101,17.109 "></polygon><polygon xmlns="http://www.w3.org/2000/svg" points="36.751,24.86 60.131,31.196 77.148,30.907 78.672,25.749 67.951,19.853 48.173,14.486 32.256,13.938 28.073,18.586   "></polygon></g><g id="SvgjsG4585" featurekey="J3GnXt-0" transform="matrix(2.085951339260557,0,0,2.085951339260557,76.66247905077404,17.567726954457022)" fill="#2da0f3"><path d="M1.6 6 l2.1 0 l0 12.66 l-0.72 0 l0 -11.94 l-0.66 0 l0 12.56 l2.02 0 l0 -13.28 l0.72 0 l0 14 l-3.46 0 l0 -14 z M9.58 16.7 c0.98 0.44 1.84 0.66 2.56 0.66 c0.36 0 0.58 -0.02 0.68 -0.08 c0.46 -0.12 0.78 -0.38 0.98 -0.78 l0.02 -0.04 c0.1 -0.18 0.14 -0.4 0.14 -0.68 c0 -0.14 -0.04 -0.3 -0.12 -0.5 l-0.04 -0.08 c-0.26 -0.54 -0.84 -0.9 -1.9 -1.24 l-0.2 -0.06 l-0.06 -0.02 c-1.62 -0.48 -2.66 -1.24 -3.16 -2.3 c-0.2 -0.4 -0.3 -0.84 -0.3 -1.32 c0 -0.5 0.1 -0.98 0.3 -1.48 l0.04 -0.08 c0.46 -0.92 1.2 -1.52 2.18 -1.82 c0.7 -0.1 1.1 -0.16 1.2 -0.16 c1.36 0 2.94 0.56 4.72 1.66 l0.38 -0.62 c-1.94 -1.18 -3.62 -1.76 -5.08 -1.76 c-0.58 0 -1.06 0.06 -1.4 0.2 c-1.18 0.32 -2.06 1.04 -2.64 2.18 l-0.06 0.14 c-0.24 0.58 -0.36 1.16 -0.36 1.74 c0 0.62 0.12 1.16 0.36 1.64 c0.62 1.24 1.82 2.12 3.62 2.66 l0.24 0.08 c0.82 0.26 1.3 0.54 1.48 0.86 l0.02 0.04 c0.04 0.06 0.06 0.14 0.06 0.24 c0 0.18 -0.02 0.3 -0.08 0.4 c-0.14 0.32 -0.48 0.48 -1.02 0.48 c-0.86 0 -2.1 -0.44 -3.06 -1.06 l-0.3 -0.18 l-1.76 2.84 l0.3 0.18 c1.42 0.96 3.3 1.56 4.82 1.56 c0.5 0 0.96 -0.06 1.38 -0.18 c1.18 -0.34 2.06 -1.08 2.64 -2.2 l0.08 -0.14 c0.24 -0.62 0.36 -1.2 0.36 -1.74 c0 -0.48 -0.16 -1.08 -0.46 -1.82 c-0.54 -1.08 -1.68 -1.9 -3.46 -2.46 l-0.28 -0.08 c-0.56 -0.18 -0.94 -0.36 -1.12 -0.5 c-0.24 -0.2 -0.38 -0.34 -0.44 -0.42 l-0.04 -0.22 c0 -0.2 0.04 -0.38 0.14 -0.52 c0.16 -0.3 0.32 -0.38 0.96 -0.38 c0.86 0 2.1 0.44 3.06 1.06 l0.3 0.18 l1.08 -1.72 l-0.32 -0.18 c-1.22 -0.8 -2.88 -1.36 -4.1 -1.36 c-0.54 0 -0.88 0.04 -1.06 0.14 c-0.82 0.24 -1.44 0.76 -1.84 1.54 c-0.18 0.34 -0.26 0.74 -0.26 1.24 c0 0.38 0.08 0.74 0.24 1.08 c0.42 0.9 1.36 1.56 2.82 2 l0.26 0.08 l0.54 0.2 c0.3 0.12 0.62 0.28 0.98 0.48 c0.64 0.38 0.96 0.92 0.96 1.64 c0 0.4 -0.1 0.78 -0.28 1.12 c-0.42 0.74 -1.14 1.12 -2.14 1.12 c-0.68 0 -1.64 -0.26 -2.88 -0.76 l-0.34 0.58 l-0.02 0.04 c1.14 0.58 2.22 0.86 3.26 0.86 c0.58 0 1.12 -0.12 1.6 -0.36 c0.94 -0.46 1.52 -1.42 1.52 -2.62 c0 -1.9 -1.46 -2.46 -3 -3 l-0.26 -0.08 c-1.26 -0.38 -2.04 -0.9 -2.36 -1.6 c-0.12 -0.24 -0.18 -0.5 -0.18 -0.8 c0 -0.38 0.06 -0.68 0.2 -0.94 c0.32 -0.58 0.78 -0.96 1.38 -1.14 l0.8 -0.1 c1.06 0 2.22 0.36 3.48 1.06 l-0.32 0.5 c-1.3 -0.64 -2.34 -0.96 -3.1 -0.96 c-0.38 0 -0.6 0.02 -0.7 0.08 c-0.44 0.12 -0.76 0.38 -0.98 0.8 l-0.02 0.04 c-0.1 0.18 -0.14 0.42 -0.14 0.72 c0 0.22 0.04 0.38 0.1 0.48 c0.26 0.54 0.94 0.98 2.02 1.3 l0.26 0.08 l0.5 0.16 c0.06 0.02 0.38 0.16 0.96 0.44 c0.78 0.44 1.34 1 1.66 1.66 c0.2 0.4 0.3 0.84 0.3 1.32 c0 0.58 -0.1 1.08 -0.32 1.5 l-0.04 0.08 c-0.46 0.92 -1.2 1.52 -2.18 1.82 c-0.7 0.1 -1.1 0.16 -1.2 0.16 c-1.02 0 -2.34 -0.38 -3.56 -0.96 l-0.56 -0.3 l1 -1.62 z M18.46 5.98 l2.06 0 l0 12.7 l-0.74 0 l0 -11.98 l-0.6 0 l0 12.58 l6.58 0 l0 -1.92 l-3.26 0 l0 -0.72 l3.98 0 l0 3.36 l-8.02 0 l0 -14.02 z M21.18 5.98 l0.72 0 l0 11.96 l3.22 0 l0 0.74 l-3.94 0 l0 -12.7 z M29.759999999999998 18.76 l0.88 0 l0.7 -1.68 l5.22 0.02 l1.28 2.9 l3.68 -0.02 l-6.3 -13.98 l-1.28 0 l-6.26 13.98 l3.9 0 l0.68 -1.6 l3.98 0 l-0.3 -0.68 l-4.12 0 l-0.64 1.58 l-2.38 0 l5.54 -12.6 l0.48 0 l5.56 12.6 l-2.12 0 l-1.28 -2.86 l-6.2 0 z M32.14 15.24 l2.44 -5.82 l4.1 9.32 l0.82 0 l-4.92 -10.96 l-3.6 8.08 l5.8 0 l-2.2 -4.86 l-1.52 3.66 l0.78 0 l0.74 -1.82 l1.1 2.4 l-3.54 0 z M52.120000000000005 14.3 l-8.18 -8.3 l-1 0 l9.9 10.06 l0 -8.66 l-0.72 0 l0 6.9 z M51.46 12.7 l0 -6 l2.04 0 l0 12.58 l-0.34 0 l-0.08 -0.08 l-9.16 -9.28 l0 10.08 l2.1 0 l0 -5.9 l-0.74 -0.76 l0 5.94 l-0.64 0 l0 -7.6 l8.3 8.32 l1.28 0 l0 -14 l-3.48 0 l0 5.92 z M43.26 20 l0 -11.7 l9.58 9.72 l0 -1.06 l-10.28 -10.38 l0 13.42 l0.7 0 z M66.02 8.02 c-1.2 -1.26 -2.74 -2 -4.24 -2 l-5.86 0 l0 0.72 l5.86 0.02 c0.94 0 1.84 0.3 2.7 0.88 c1.68 1.18 2.8 3.3 2.8 5.36 c0 1.08 -0.24 2.08 -0.74 3.02 c-1 1.86 -3.02 3.22 -4.76 3.22 l-5.14 0 l0 -11.22 l4.98 0.02 c0.72 0 1.42 0.22 2.08 0.68 c1.34 0.9 2.22 2.62 2.22 4.28 c0 1.22 -0.52 2.48 -1.46 3.46 c-0.88 0.88 -1.94 1.44 -2.82 1.44 l-2.28 0 l0.02 -7.9 l-0.7 0 l-0.02 8.26 l0 0.36 l2.98 0 c1.1 0 2.38 -0.62 3.36 -1.66 c1.06 -1.14 1.64 -2.54 1.64 -3.96 c0 -1.44 -0.56 -2.88 -1.58 -4 c-1.1 -1.1 -2.3 -1.7 -3.44 -1.7 l-5.7 0 l0 12.68 l5.86 0 c1.44 0 3 -0.74 4.18 -2 c1.3 -1.34 2.02 -3.12 2.02 -4.98 s-0.68 -3.62 -1.96 -4.98 z M61.56 17.259999999999998 c0.56 0 1.14 -0.22 1.76 -0.64 c1.22 -0.86 2 -2.3 2 -3.64 c0 -0.72 -0.18 -1.42 -0.52 -2.1 c-0.7 -1.34 -1.96 -2.18 -3.24 -2.18 l-4.3 0.02 l0.02 9.94 l0.72 0 l0 -9.24 l3.56 -0.02 c0.46 0 0.94 0.18 1.44 0.52 c1.02 0.72 1.6 1.84 1.6 3.06 c0 0.82 -0.38 1.74 -1 2.44 s-1.38 1.12 -2.04 1.12 l-1.42 0 l0 0.72 l1.42 0 z M71.94 16.7 c0.98 0.44 1.84 0.66 2.56 0.66 c0.36 0 0.58 -0.02 0.68 -0.08 c0.46 -0.12 0.78 -0.38 0.98 -0.78 l0.02 -0.04 c0.1 -0.18 0.14 -0.4 0.14 -0.68 c0 -0.14 -0.04 -0.3 -0.12 -0.5 l-0.04 -0.08 c-0.26 -0.54 -0.84 -0.9 -1.9 -1.24 l-0.2 -0.06 l-0.06 -0.02 c-1.62 -0.48 -2.66 -1.24 -3.16 -2.3 c-0.2 -0.4 -0.3 -0.84 -0.3 -1.32 c0 -0.5 0.1 -0.98 0.3 -1.48 l0.04 -0.08 c0.46 -0.92 1.2 -1.52 2.18 -1.82 c0.7 -0.1 1.1 -0.16 1.2 -0.16 c1.36 0 2.94 0.56 4.72 1.66 l0.38 -0.62 c-1.94 -1.18 -3.62 -1.76 -5.08 -1.76 c-0.58 0 -1.06 0.06 -1.4 0.2 c-1.18 0.32 -2.06 1.04 -2.64 2.18 l-0.06 0.14 c-0.24 0.58 -0.36 1.16 -0.36 1.74 c0 0.62 0.12 1.16 0.36 1.64 c0.62 1.24 1.82 2.12 3.62 2.66 l0.24 0.08 c0.82 0.26 1.3 0.54 1.48 0.86 l0.02 0.04 c0.04 0.06 0.06 0.14 0.06 0.24 c0 0.18 -0.02 0.3 -0.08 0.4 c-0.14 0.32 -0.48 0.48 -1.02 0.48 c-0.86 0 -2.1 -0.44 -3.06 -1.06 l-0.3 -0.18 l-1.76 2.84 l0.3 0.18 c1.42 0.96 3.3 1.56 4.82 1.56 c0.5 0 0.96 -0.06 1.38 -0.18 c1.18 -0.34 2.06 -1.08 2.64 -2.2 l0.08 -0.14 c0.24 -0.62 0.36 -1.2 0.36 -1.74 c0 -0.48 -0.16 -1.08 -0.46 -1.82 c-0.54 -1.08 -1.68 -1.9 -3.46 -2.46 l-0.28 -0.08 c-0.56 -0.18 -0.94 -0.36 -1.12 -0.5 c-0.24 -0.2 -0.38 -0.34 -0.44 -0.42 l-0.04 -0.22 c0 -0.2 0.04 -0.38 0.14 -0.52 c0.16 -0.3 0.32 -0.38 0.96 -0.38 c0.86 0 2.1 0.44 3.06 1.06 l0.3 0.18 l1.08 -1.72 l-0.32 -0.18 c-1.22 -0.8 -2.88 -1.36 -4.1 -1.36 c-0.54 0 -0.88 0.04 -1.06 0.14 c-0.82 0.24 -1.44 0.76 -1.84 1.54 c-0.18 0.34 -0.26 0.74 -0.26 1.24 c0 0.38 0.08 0.74 0.24 1.08 c0.42 0.9 1.36 1.56 2.82 2 l0.26 0.08 l0.54 0.2 c0.3 0.12 0.62 0.28 0.98 0.48 c0.64 0.38 0.96 0.92 0.96 1.64 c0 0.4 -0.1 0.78 -0.28 1.12 c-0.42 0.74 -1.14 1.12 -2.14 1.12 c-0.68 0 -1.64 -0.26 -2.88 -0.76 l-0.34 0.58 l-0.02 0.04 c1.14 0.58 2.22 0.86 3.26 0.86 c0.58 0 1.12 -0.12 1.6 -0.36 c0.94 -0.46 1.52 -1.42 1.52 -2.62 c0 -1.9 -1.46 -2.46 -3 -3 l-0.26 -0.08 c-1.26 -0.38 -2.04 -0.9 -2.36 -1.6 c-0.12 -0.24 -0.18 -0.5 -0.18 -0.8 c0 -0.38 0.06 -0.68 0.2 -0.94 c0.32 -0.58 0.78 -0.96 1.38 -1.14 l0.8 -0.1 c1.06 0 2.22 0.36 3.48 1.06 l-0.32 0.5 c-1.3 -0.64 -2.34 -0.96 -3.1 -0.96 c-0.38 0 -0.6 0.02 -0.7 0.08 c-0.44 0.12 -0.76 0.38 -0.98 0.8 l-0.02 0.04 c-0.1 0.18 -0.14 0.42 -0.14 0.72 c0 0.22 0.04 0.38 0.1 0.48 c0.26 0.54 0.94 0.98 2.02 1.3 l0.26 0.08 l0.5 0.16 c0.06 0.02 0.38 0.16 0.96 0.44 c0.78 0.44 1.34 1 1.66 1.66 c0.2 0.4 0.3 0.84 0.3 1.32 c0 0.58 -0.1 1.08 -0.32 1.5 l-0.04 0.08 c-0.46 0.92 -1.2 1.52 -2.18 1.82 c-0.7 0.1 -1.1 0.16 -1.2 0.16 c-1.02 0 -2.34 -0.38 -3.56 -0.96 l-0.56 -0.3 l1 -1.62 z M89.6 14.14 l-6.96 0 l0 2.1 l6.96 0 l0 -2.1 z M83.36 15.52 l0 -0.66 l5.62 0 l0 0.66 l-5.62 0 z M94.72 16.7 c0.98 0.44 1.84 0.66 2.56 0.66 c0.36 0 0.58 -0.02 0.68 -0.08 c0.46 -0.12 0.78 -0.38 0.98 -0.78 l0.02 -0.04 c0.1 -0.18 0.14 -0.4 0.14 -0.68 c0 -0.14 -0.04 -0.3 -0.12 -0.5 l-0.04 -0.08 c-0.26 -0.54 -0.84 -0.9 -1.9 -1.24 l-0.2 -0.06 l-0.06 -0.02 c-1.62 -0.48 -2.66 -1.24 -3.16 -2.3 c-0.2 -0.4 -0.3 -0.84 -0.3 -1.32 c0 -0.5 0.1 -0.98 0.3 -1.48 l0.04 -0.08 c0.46 -0.92 1.2 -1.52 2.18 -1.82 c0.7 -0.1 1.1 -0.16 1.2 -0.16 c1.36 0 2.94 0.56 4.72 1.66 l0.38 -0.62 c-1.94 -1.18 -3.62 -1.76 -5.08 -1.76 c-0.58 0 -1.06 0.06 -1.4 0.2 c-1.18 0.32 -2.06 1.04 -2.64 2.18 l-0.06 0.14 c-0.24 0.58 -0.36 1.16 -0.36 1.74 c0 0.62 0.12 1.16 0.36 1.64 c0.62 1.24 1.82 2.12 3.62 2.66 l0.24 0.08 c0.82 0.26 1.3 0.54 1.48 0.86 l0.02 0.04 c0.04 0.06 0.06 0.14 0.06 0.24 c0 0.18 -0.02 0.3 -0.08 0.4 c-0.14 0.32 -0.48 0.48 -1.02 0.48 c-0.86 0 -2.1 -0.44 -3.06 -1.06 l-0.3 -0.18 l-1.76 2.84 l0.3 0.18 c1.42 0.96 3.3 1.56 4.82 1.56 c0.5 0 0.96 -0.06 1.38 -0.18 c1.18 -0.34 2.06 -1.08 2.64 -2.2 l0.08 -0.14 c0.24 -0.62 0.36 -1.2 0.36 -1.74 c0 -0.48 -0.16 -1.08 -0.46 -1.82 c-0.54 -1.08 -1.68 -1.9 -3.46 -2.46 l-0.28 -0.08 c-0.56 -0.18 -0.94 -0.36 -1.12 -0.5 c-0.24 -0.2 -0.38 -0.34 -0.44 -0.42 l-0.04 -0.22 c0 -0.2 0.04 -0.38 0.14 -0.52 c0.16 -0.3 0.32 -0.38 0.96 -0.38 c0.86 0 2.1 0.44 3.06 1.06 l0.3 0.18 l1.08 -1.72 l-0.32 -0.18 c-1.22 -0.8 -2.88 -1.36 -4.1 -1.36 c-0.54 0 -0.88 0.04 -1.06 0.14 c-0.82 0.24 -1.44 0.76 -1.84 1.54 c-0.18 0.34 -0.26 0.74 -0.26 1.24 c0 0.38 0.08 0.74 0.24 1.08 c0.42 0.9 1.36 1.56 2.82 2 l0.26 0.08 l0.54 0.2 c0.3 0.12 0.62 0.28 0.98 0.48 c0.64 0.38 0.96 0.92 0.96 1.64 c0 0.4 -0.1 0.78 -0.28 1.12 c-0.42 0.74 -1.14 1.12 -2.14 1.12 c-0.68 0 -1.64 -0.26 -2.88 -0.76 l-0.34 0.58 l-0.02 0.04 c1.14 0.58 2.22 0.86 3.26 0.86 c0.58 0 1.12 -0.12 1.6 -0.36 c0.94 -0.46 1.52 -1.42 1.52 -2.62 c0 -1.9 -1.46 -2.46 -3 -3 l-0.26 -0.08 c-1.26 -0.38 -2.04 -0.9 -2.36 -1.6 c-0.12 -0.24 -0.18 -0.5 -0.18 -0.8 c0 -0.38 0.06 -0.68 0.2 -0.94 c0.32 -0.58 0.78 -0.96 1.38 -1.14 l0.8 -0.1 c1.06 0 2.22 0.36 3.48 1.06 l-0.32 0.5 c-1.3 -0.64 -2.34 -0.96 -3.1 -0.96 c-0.38 0 -0.6 0.02 -0.7 0.08 c-0.44 0.12 -0.76 0.38 -0.98 0.8 l-0.02 0.04 c-0.1 0.18 -0.14 0.42 -0.14 0.72 c0 0.22 0.04 0.38 0.1 0.48 c0.26 0.54 0.94 0.98 2.02 1.3 l0.26 0.08 l0.5 0.16 c0.06 0.02 0.38 0.16 0.96 0.44 c0.78 0.44 1.34 1 1.66 1.66 c0.2 0.4 0.3 0.84 0.3 1.32 c0 0.58 -0.1 1.08 -0.32 1.5 l-0.04 0.08 c-0.46 0.92 -1.2 1.52 -2.18 1.82 c-0.7 0.1 -1.1 0.16 -1.2 0.16 c-1.02 0 -2.34 -0.38 -3.56 -0.96 l-0.56 -0.3 l1 -1.62 z M103.1 6 l3.48 0 l0 4.62 l-0.74 0 l0 -3.88 l-2.02 0 l0 12.52 l2.02 0 l0 -3.86 l0.74 0 l0 4.6 l-3.48 0 l0 -14 z M104.48 7.32 l0.72 0 l0 3.92 l6.1 0 l0 -5.24 l0.7 0 l0 5.94 l-7.52 0 l0 -4.62 z M114.14 6.74 l-0.68 0 l0 5.26 l-0.72 0 l0 -6 l2.1 0 l0 14 l-0.7 0 l0 -13.26 z M111.3 14.76 l-6.1 0 l0 4.02 l-0.74 0 l0 -4.76 l7.54 0 l0 5.24 l0.74 0 l0 -5.9 l-8.28 0 l0 -0.7 l9 0 l0 7.34 l-2.16 0 l0 -5.24 z M122.98 20 c-1.22 0 -2.38 -0.32 -3.48 -0.96 c-2.2 -1.26 -3.56 -3.58 -3.56 -6.06 c0 -1.24 0.32 -2.4 0.96 -3.5 c1.26 -2.16 3.62 -3.52 6.08 -3.52 c1.22 0 2.4 0.32 3.5 0.94 c2.2 1.28 3.52 3.66 3.52 6.08 c0 1.22 -0.32 2.36 -0.94 3.46 c-1.28 2.2 -3.6 3.56 -6.08 3.56 z M122.98 6.66 c-1.14 0 -2.2 0.28 -3.16 0.84 c-1.94 1.12 -3.14 3.18 -3.14 5.48 c0 1.14 0.28 2.2 0.84 3.16 c1.12 1.94 3.16 3.14 5.46 3.14 c1.14 0 2.2 -0.28 3.18 -0.84 c1.94 -1.12 3.14 -3.16 3.14 -5.46 c0 -1.14 -0.28 -2.2 -0.84 -3.18 c-1.12 -1.94 -3.24 -3.14 -5.48 -3.14 z M122.98 18.64 c-1 0 -1.94 -0.26 -2.84 -0.76 c-1.78 -1.02 -2.88 -2.88 -2.88 -4.9 c0 -1.02 0.26 -1.96 0.76 -2.84 c1.02 -1.76 2.82 -2.8 4.96 -2.8 c1.08 0 2.06 0.24 2.92 0.72 c1.72 0.96 2.72 2.76 2.72 4.92 c0 1.02 -0.24 1.96 -0.72 2.82 c-0.98 1.74 -2.9 2.84 -4.92 2.84 z M122.98 8.04 c-0.9 0 -1.72 0.22 -2.48 0.66 c-1.54 0.88 -2.48 2.46 -2.48 4.28 c0 0.88 0.22 1.7 0.68 2.46 c0.88 1.54 2.44 2.5 4.28 2.5 c0.9 0 1.72 -0.22 2.48 -0.68 c1.5 -0.88 2.46 -2.52 2.46 -4.28 c0 -0.9 -0.22 -1.74 -0.66 -2.5 c-0.88 -1.52 -2.54 -2.44 -4.28 -2.44 z M122.98 17.34 c-0.78 0 -1.52 -0.2 -2.18 -0.58 c-1.34 -0.78 -2.2 -2.26 -2.2 -3.78 c0 -0.78 0.2 -1.52 0.6 -2.2 c0.78 -1.36 2.16 -2.14 3.78 -2.14 c0.78 0 1.5 0.2 2.16 0.58 c1.34 0.78 2.12 2.14 2.12 3.76 c0 0.8 -0.18 1.52 -0.54 2.18 c-0.74 1.32 -2.16 2.18 -3.74 2.18 z M122.98 9.36 c-0.64 0 -1.24 0.16 -1.8 0.48 c-1.12 0.66 -1.84 1.84 -1.84 3.14 c0 0.64 0.16 1.24 0.48 1.78 c0.64 1.12 1.8 1.8 3.16 1.8 c0.66 0 1.28 -0.16 1.82 -0.48 c1.1 -0.64 1.76 -1.82 1.76 -3.1 c0 -0.66 -0.16 -1.26 -0.48 -1.82 c-0.64 -1.12 -1.82 -1.8 -3.1 -1.8 z M130.86 5.98 l0.74 0 l0 13.28 l1.98 0 l0 -4.82 l2.46 0 c0.9 0 1.64 -0.2 2.26 -0.62 c0.96 -0.58 1.46 -1.76 1.46 -3.3 c0 -2.48 -1.4 -3.8 -3.98 -3.8 l-2.86 0 l0 4.98 l2.56 0 c1.04 0 1.44 -0.32 1.44 -1.18 c0 -0.7 -0.34 -1.04 -1.04 -1.04 l-1.52 0 l0 1.62 l-0.74 0.02 l0 -2.34 l2.26 0 c1.1 0 1.72 0.64 1.72 1.74 c0 1.28 -0.7 1.92 -2.12 1.92 l-3.24 0 l0 -6.46 l3.54 0 c2.9 0 4.68 1.68 4.68 4.54 c0 2.96 -1.62 4.66 -4.42 4.66 l-1.72 0 l0 4.82 l-3.46 0 l0 -14.02 z M132.24 13.1 l3.36 0 c1.86 0 2.76 -0.8 2.76 -2.48 c0 -1.58 -0.86 -2.5 -2.24 -2.5 l-2.5 0 l0 -0.72 l2.5 0 c0.56 0 1.08 0.12 1.54 0.38 c0.94 0.5 1.42 1.5 1.42 2.84 c0 2.08 -1.16 3.18 -3.48 3.18 l-2.68 0 l0 5 l-0.68 0 l0 -5.7 z"></path></g></svg>